<?xml version="1.0" encoding="UTF-8" standalone="no"?>
<!DOCTYPE svg PUBLIC "-//W3C//DTD SVG 1.1//EN" "http://www.w3.org/Graphics/SVG/1.1/DTD/svg11.dtd">
<svg width="100%" height="100%" viewBox="0 0 67 67" version="1.1" xmlns="http://www.w3.org/2000/svg" xmlns:xlink="http://www.w3.org/1999/xlink" xml:space="preserve" xmlns:serif="http://www.serif.com/" style="fill-rule:evenodd;clip-rule:evenodd;stroke-linecap:round;stroke-linejoin:round;stroke-miterlimit:1.5;">
    <g transform="matrix(1,0,0,1,-134.918,-115.454)">
        <g transform="matrix(1,0,0,1,20.4865,-176.184)">
            <g transform="matrix(0.243699,0,0,0.243699,53.3698,253.945)">
                <path d="M525.494,223.401C525.494,185.467 494.696,154.669 456.761,154.669L319.296,154.669C281.362,154.669 250.564,185.467 250.564,223.401L250.564,360.866C250.564,398.8 281.362,429.598 319.296,429.598L456.761,429.598C494.696,429.598 525.494,398.8 525.494,360.866L525.494,223.401Z" style="fill:rgb(51,173,101);"/>
            </g>
            <g transform="matrix(0.308098,0,0,0.338973,12.7559,236.124)">
                <g transform="matrix(1,0,0,1,1.53981,-0.762283)">
                    <path d="M415.207,238.608L390.546,263.269L415.387,288.111" style="fill:none;stroke:white;stroke-width:10.78px;"/>
                </g>
                <g transform="matrix(-1,0,0,1,875.946,-0.762283)">
                    <path d="M415.207,238.608L390.546,263.269L415.387,288.111" style="fill:none;stroke:white;stroke-width:10.78px;"/>
                </g>
            </g>
        </g>
    </g>
</svg>
