<?xml version="1.0" encoding="UTF-8" standalone="no"?>
<!DOCTYPE svg PUBLIC "-//W3C//DTD SVG 1.1//EN" "http://www.w3.org/Graphics/SVG/1.1/DTD/svg11.dtd">
<svg width="100%" height="100%" viewBox="0 0 67 67" version="1.1" xmlns="http://www.w3.org/2000/svg" xmlns:xlink="http://www.w3.org/1999/xlink" xml:space="preserve" xmlns:serif="http://www.serif.com/" style="fill-rule:evenodd;clip-rule:evenodd;stroke-linejoin:round;stroke-miterlimit:2;">
    <g transform="matrix(1,0,0,1,-41.7047,-115.454)">
        <g transform="matrix(1,0,0,1,-183.456,-11.3536)">
            <g transform="matrix(0.243699,0,0,0.243699,164.099,89.1145)">
                <path d="M525.494,223.401C525.494,185.467 494.696,154.669 456.761,154.669L319.296,154.669C281.362,154.669 250.564,185.467 250.564,223.401L250.564,360.866C250.564,398.8 281.362,429.598 319.296,429.598L456.761,429.598C494.696,429.598 525.494,398.8 525.494,360.866L525.494,223.401Z" style="fill:rgb(56,157,216);"/>
            </g>
            <g transform="matrix(0.200179,0,0,0.200502,180.674,101.028)">
                <path d="M405.354,251.579L433.012,280.043C433.012,280.043 362.9,350.154 351.575,361.479C350.593,362.461 349.255,363.004 347.866,362.984C342.689,362.908 329.679,362.718 324.596,362.643C323.437,362.626 322.502,361.691 322.485,360.532C322.411,355.407 322.22,342.213 322.144,336.993C322.124,335.604 322.667,334.267 323.648,333.285C334.994,321.939 405.354,251.579 405.354,251.579ZM413.582,243.704L441.491,271.613C441.491,271.613 449.455,263.649 454.93,258.174C456.27,256.834 457.023,255.017 457.023,253.122C457.023,251.227 456.27,249.409 454.93,248.07C449.914,243.054 442.271,235.411 437.275,230.415C434.507,227.647 430.027,227.622 427.228,230.359C421.69,235.774 413.582,243.704 413.582,243.704Z" style="fill:white;"/>
            </g>
        </g>
    </g>
</svg>
